<?xml version="1.0" standalone="no"?><!DOCTYPE svg PUBLIC "-//W3C//DTD SVG 1.1//EN" "http://www.w3.org/Graphics/SVG/1.1/DTD/svg11.dtd"><svg t="1669275096732" class="icon" viewBox="0 0 1024 1024" version="1.1" xmlns="http://www.w3.org/2000/svg" p-id="2227" xmlns:xlink="http://www.w3.org/1999/xlink" width="200" height="200"><path d="M509.1328 513.1264m-450.816 0a450.816 450.816 0 1 0 901.632 0 450.816 450.816 0 1 0-901.632 0Z" fill="#6c9bfe" p-id="2228"></path><path d="M372.6848 239.4624H285.2864c-16.1792 0-29.2864 13.1072-29.2864 29.2864v478.464c0 16.1792 13.1072 29.2864 29.2864 29.2864h87.3984c16.1792 0 29.2864-13.1072 29.2864-29.2864V268.7488c0-16.128-13.1072-29.2864-29.2864-29.2864z m-43.6736 502.3744a27.9552 27.9552 0 1 1 0.00512-55.91552 27.9552 27.9552 0 0 1-0.00512 55.91552zM794.2144 721.1008l-73.1136-430.3872a29.29664 29.29664 0 0 0-33.792-23.9616l-86.1696 14.6432a29.184 29.184 0 0 0-23.3984 21.4528V268.8c0-16.1792-13.1072-29.2864-29.2864-29.2864H461.1072c-16.1792 0-29.2864 13.1072-29.2864 29.2864v478.464c0 16.1792 13.1072 29.2864 29.2864 29.2864h87.3984c16.1792 0 29.2864-13.1072 29.2864-29.2864V318.464l72.5504 427.0592a29.29664 29.29664 0 0 0 33.792 23.9616l86.1696-14.6432c15.9232-2.6624 26.624-17.8176 23.9104-33.7408z m-289.4336 20.736a27.9552 27.9552 0 1 1 0.00512-55.91552 27.9552 27.9552 0 0 1-0.00512 55.91552z m216.6784-13.2608a28.5184 28.5184 0 0 1-32.8704-23.296 28.5184 28.5184 0 0 1 23.296-32.8704 28.5184 28.5184 0 0 1 32.8704 23.296 28.42624 28.42624 0 0 1-23.296 32.8704z" fill="#FFFFFF" p-id="2229"></path></svg>