<?xml version="1.0" standalone="no"?><!DOCTYPE svg PUBLIC "-//W3C//DTD SVG 1.1//EN" "http://www.w3.org/Graphics/SVG/1.1/DTD/svg11.dtd"><svg t="1669275043725" class="icon" viewBox="0 0 1024 1024" version="1.1" xmlns="http://www.w3.org/2000/svg" p-id="770" xmlns:xlink="http://www.w3.org/1999/xlink" width="200" height="200"><path d="M509.9008 509.5936m-450.816 0a450.816 450.816 0 1 0 901.632 0 450.816 450.816 0 1 0-901.632 0Z" fill="#6c9bfe" p-id="771"></path><path d="M764.3136 420.4544c-8.6016-127.3344-117.0944-228.352-249.1904-228.352-131.584 0-239.616 100.1472-249.088 226.7136-35.3792 15.104-60.2624 50.2272-60.2624 91.0848v101.5808c0 54.5792 44.3904 98.9696 98.9696 98.9696h38.144c19.8144 0 35.84-16.0256 35.84-35.84v-227.84c0-19.8144-16.0256-35.84-35.84-35.84h-3.9424c12.9024-83.1488 86.9888-147.1488 176.128-147.1488 89.1904 0 163.2256 63.9488 176.1792 147.1488h-7.2192c-19.8144 0-35.84 16.0256-35.84 35.84v227.84c0 12.9536 6.912 24.2688 17.2032 30.5664-23.3984 22.7328-60.6208 48.6912-113.2032 56.1152a37.93408 37.93408 0 0 0-22.6816-7.5264h-26.112a38.1952 38.1952 0 0 0 0 76.3904h26.112c11.3152 0 21.4528-4.9664 28.4672-12.8 99.9424-13.056 156.928-78.4896 177.8176-107.9808 48.128-6.7072 85.2992-47.9744 85.2992-97.9456V509.9008c0.1024-39.4752-23.2448-73.5744-56.7808-89.4464z" fill="#FFFFFF" p-id="772"></path></svg>